<?xml version="1.0" standalone="no"?>
<!DOCTYPE svg PUBLIC "-//W3C//DTD SVG 20010904//EN"
 "http://www.w3.org/TR/2001/REC-SVG-20010904/DTD/svg10.dtd">
<svg version="1.0" xmlns="http://www.w3.org/2000/svg"
 width="620.000000pt" height="620.000000pt" viewBox="0 0 620.000000 620.000000"
 preserveAspectRatio="xMidYMid meet">
<metadata>
Created by potrace 1.14, written by Peter Selinger 2001-2017
</metadata>
<g transform="translate(0.000000,620.000000) scale(0.100000,-0.100000)"
fill="#000000" stroke="none">
<path d="M2888 6195 c-1 -2 -38 -6 -80 -10 -43 -3 -88 -8 -100 -10 -13 -2 -59
-9 -103 -15 -331 -47 -753 -198 -1064 -381 -128 -75 -348 -227 -397 -273 -6
-6 -36 -31 -65 -56 -57 -47 -249 -237 -311 -306 -109 -124 -270 -348 -360
-505 -53 -91 -146 -286 -188 -394 -24 -60 -47 -119 -51 -130 -39 -93 -117
-415 -135 -555 -3 -25 -7 -56 -9 -69 -27 -163 -27 -613 -1 -782 3 -13 7 -45
10 -70 43 -314 144 -627 306 -949 95 -190 231 -396 378 -574 87 -104 278 -298
367 -371 33 -28 62 -52 65 -55 4 -5 124 -94 210 -157 20 -15 158 -98 270 -163
8 -5 61 -32 118 -59 203 -100 444 -184 670 -235 101 -23 128 -28 220 -42 20
-3 48 -7 61 -9 154 -26 657 -26 786 -1 11 2 43 7 70 10 71 10 115 17 134 21
60 12 174 39 216 51 28 8 53 14 57 14 4 1 61 19 125 41 320 110 556 233 843
436 179 128 437 374 583 558 75 93 189 257 250 357 115 187 233 456 302 683
42 136 39 127 50 180 4 22 10 49 13 60 8 36 40 219 46 265 17 142 20 204 21
390 0 252 -7 350 -40 535 -24 130 -23 125 -40 200 -109 464 -358 946 -679
1314 -54 62 -259 264 -319 315 -466 396 -1061 658 -1632 721 -33 4 -71 9 -85
12 -28 5 -506 13 -512 8z"/>
</g>
</svg>
